<svg xmlns="http://www.w3.org/2000/svg" xmlns:xlink="http://www.w3.org/1999/xlink" width="495" height="195" viewBox="0 0 495 195">
  <rect fill="#ffffff" width="495" height="195" rx="4.5"/>
  <g transform="translate(25, 35)">
    <text x="0" y="0" class="header" font-family="Verdana, Geneva, sans-serif" font-size="18" fill="#333" font-weight="bold">Most Used Languages</text>
    <g transform="translate(0, 35)">
      <rect x="0" y="-10" width="120" height="18" rx="4" fill="#54b1fd" opacity="0.15"/>
      <rect x="0" y="-10" width="108" height="18" rx="4" fill="#54b1fd"/>
      <text x="130" y="4" font-family="Verdana, Geneva, sans-serif" font-size="13" fill="#333">TypeScript 90%</text>
    </g>
    <g transform="translate(0, 60)">
      <rect x="0" y="-10" width="120" height="18" rx="4" fill="#7F52FF" opacity="0.15"/>
      <rect x="0" y="-10" width="60" height="18" rx="4" fill="#7F52FF"/>
      <text x="130" y="4" font-family="Verdana, Geneva, sans-serif" font-size="13" fill="#333">Kotlin 50%</text>
    </g>
    <g transform="translate(0, 85)">
      <rect x="0" y="-10" width="120" height="18" rx="4" fill="#3776AB" opacity="0.15"/>
      <rect x="0" y="-10" width="48" height="18" rx="4" fill="#3776AB"/>
      <text x="130" y="4" font-family="Verdana, Geneva, sans-serif" font-size="13" fill="#333">Python 40%</text>
    </g>
    <g transform="translate(0, 110)">
      <rect x="0" y="-10" width="120" height="18" rx="4" fill="#02569B" opacity="0.15"/>
      <rect x="0" y="-10" width="36" height="18" rx="4" fill="#02569B"/>
      <text x="130" y="4" font-family="Verdana, Geneva, sans-serif" font-size="13" fill="#333">Dart 30%</text>
    </g>
  </g>
</svg>
